<svg viewBox="0 0 1024 1024" xmlns="http://www.w3.org/2000/svg" id="图层_1"><defs><style>.cls-1{fill:#d6e6f2;}.cls-2{fill:#c1daea;}.cls-3{opacity:0.5;}.cls-4{fill:#fafafa;}.cls-5{opacity:0.6;}.cls-6{fill:#fff;}.cls-7{fill:#b5d6ea;}.cls-8{fill:#e1e1e1;}.cls-9{fill:#d7e4f9;}.cls-10,.cls-22,.cls-23,.cls-24,.cls-37{isolation:isolate;}.cls-11{fill:#253369;}.cls-12{fill:#1a2e35;}.cls-13{opacity:0.7;}.cls-14{fill:#94b8ed;}.cls-15{fill:#007cff;}.cls-16{opacity:0.9;}.cls-17,.cls-24{opacity:0.4;}.cls-18{fill:#acc6e5;}.cls-19{fill:#9c9ce5;}.cls-20{fill:#b1b1f2;}.cls-21{fill:#6f66d1;}.cls-22{opacity:0.3;}.cls-23{opacity:0.2;}.cls-25{fill:#a4baf7;}.cls-26{fill:#ebf3ff;}.cls-27{fill:#5fb7ff;}.cls-28{fill:#fbb433;}.cls-29{fill:#7689d6;}.cls-30{fill:#ff9e85;}.cls-31{opacity:0.1;}.cls-32{fill:#0c0c0c;}.cls-33{fill:#213594;}.cls-34{fill:#697e93;}.cls-35{fill:#333;}.cls-36{fill:#fdc8aa;}.cls-37{opacity:0.22;}.cls-38{fill:#439e7b;}.cls-39{fill:#88d493;}.cls-40{opacity:0.25;}.cls-41{fill:#3a3a77;}</style></defs><path d="M628.61,245.08a62.09,62.09,0,0,0-8.86,21.48l-12,1.13v23.23l12,1.13a62,62,0,0,0,8.86,21.47L621,322.78l16.42,16.42,9.26-7.66a62.11,62.11,0,0,0,21.48,8.87l1.13,12h23.22l1.13-12a62.11,62.11,0,0,0,21.48-8.87l9.26,7.66,16.42-16.42-7.66-9.26A62,62,0,0,0,742,292.05l12-1.13V267.69l-12-1.13a62.09,62.09,0,0,0-8.86-21.48l7.66-9.25L724.33,219.4l-9.26,7.66a62.09,62.09,0,0,0-21.48-8.86l-1.13-12H669.24l-1.13,12a62.09,62.09,0,0,0-21.48,8.86l-9.26-7.66L621,235.83Zm78.91,7.55a37.72,37.72,0,1,1-53.34,0A37.72,37.72,0,0,1,707.52,252.63Z" class="cls-1"></path><rect rx="4.94" height="144.4" width="182.91" y="113.23" x="389.87" class="cls-1"></rect><path d="M394.5,113.23H568.23a4.55,4.55,0,0,1,4.55,4.55v20.63a0,0,0,0,1,0,0H389.87a0,0,0,0,1,0,0V117.86A4.63,4.63,0,0,1,394.5,113.23Z" class="cls-2"></path><g class="cls-3"><path d="M563.08,127.66a5.5,5.5,0,1,1-5.49-5.5A5.49,5.49,0,0,1,563.08,127.66Z" class="cls-4"></path></g><g class="cls-3"><path d="M547.46,127.66a5.5,5.5,0,1,1-5.5-5.5A5.49,5.49,0,0,1,547.46,127.66Z" class="cls-4"></path></g><g class="cls-3"><circle r="5.5" cy="127.66" cx="526.34" class="cls-4"></circle></g><g class="cls-5"><rect height="5.13" width="97.86" y="159.46" x="431.86" class="cls-6"></rect></g><rect height="5.13" width="70.02" y="170.55" x="433.38" class="cls-2"></rect><rect height="5.13" width="17.88" y="159.46" x="538.38" class="cls-7"></rect><rect height="5.13" width="19.25" y="159.46" x="405.81" class="cls-7"></rect><rect height="5.13" width="97.86" y="182.87" x="431.86" class="cls-7"></rect><g class="cls-5"><rect height="5.13" width="17.88" y="182.87" x="538.38" class="cls-6"></rect></g><rect height="5.13" width="19.25" y="182.87" x="405.81" class="cls-7"></rect><g class="cls-5"><rect height="5.13" width="97.86" y="231.67" x="431.86" class="cls-6"></rect></g><g class="cls-5"><rect height="5.13" width="17.88" y="231.67" x="538.38" class="cls-6"></rect></g><rect height="5.13" width="97.86" y="195.21" x="431.86" class="cls-7"></rect><rect height="5.13" width="17.88" y="195.21" x="538.38" class="cls-2"></rect><rect height="5.13" width="19.25" y="195.21" x="405.81" class="cls-2"></rect><rect height="5.13" width="46.51" y="170.75" x="511.07" class="cls-7"></rect><g class="cls-5"><rect height="5.13" width="70.02" y="205.97" x="431.86" class="cls-6"></rect></g><rect height="5.13" width="46.52" y="206.17" x="509.55" class="cls-7"></rect><rect height="5.13" width="35.01" y="217.12" x="431.86" class="cls-2"></rect><path d="M849.92,155.72l-20.73,9.68,20.73,9.68v7.81l-27.7-13.44v-8.1l27.7-13.44Z" class="cls-8"></path><path d="M913,161.35v8.1l-27.7,13.44v-7.81L906,165.4l-20.73-9.68v-7.81Z" class="cls-8"></path><polygon points="872.45 142.48 858.95 189.16 865.7 189.16 879.21 142.48 872.45 142.48" class="cls-8"></polygon><path d="M118.36,464.61a36.31,36.31,0,0,0-5.18,12.54l-7,.66v13.57l7,.66a36.39,36.39,0,0,0,5.18,12.54L113.89,510l9.59,9.59,5.4-4.48a36.24,36.24,0,0,0,12.55,5.18l.66,7h13.56l.66-7a36.16,36.16,0,0,0,12.55-5.18l5.4,4.48,9.6-9.59-4.48-5.41A36.19,36.19,0,0,0,184.56,492l7-.66V477.81l-7-.66a36.11,36.11,0,0,0-5.18-12.54l4.48-5.41-9.6-9.59-5.4,4.47a36.35,36.35,0,0,0-12.55-5.18l-.66-7H142.09l-.66,7a36.22,36.22,0,0,0-12.55,5.17l-5.4-4.47-9.59,9.59ZM164.45,469a22,22,0,1,1-31.16,0A22,22,0,0,1,164.45,469Z" class="cls-8"></path><path d="M887.18,306.68a30.21,30.21,0,0,0-4.3,10.41l-5.81.55v11.27l5.81.54a30.26,30.26,0,0,0,4.3,10.42l-3.71,4.49,8,8,4.49-3.71a30,30,0,0,0,10.42,4.29l.54,5.82h11.27l.54-5.82a30,30,0,0,0,10.42-4.29l4.49,3.71,8-8-3.71-4.49a30,30,0,0,0,4.29-10.42l5.82-.54V317.64l-5.81-.55a30.21,30.21,0,0,0-4.3-10.41l3.71-4.49-8-8-4.49,3.71a30.18,30.18,0,0,0-10.42-4.3l-.54-5.81H906.88l-.54,5.81a30.18,30.18,0,0,0-10.42,4.3l-4.49-3.71-8,8Zm38.27,3.66a18.29,18.29,0,1,1-25.87,0A18.3,18.3,0,0,1,925.45,310.34Z" class="cls-1"></path><path d="M917.7,904.06c0,6.49-179,11.74-399.72,11.74s-399.71-5.25-399.71-11.74,179-11.73,399.71-11.73S917.7,897.58,917.7,904.06Z" class="cls-9"></path><g class="cls-10"><path d="M219.42,279.3H273a0,0,0,0,1,0,0v445a0,0,0,0,1,0,0H217.63a7.32,7.32,0,0,1-7.32-7.32V288.41a9.11,9.11,0,0,1,9.11-9.11Z" class="cls-11"></path></g><g class="cls-10"><polygon points="459.49 716.6 439.59 818.58 468.47 818.58 491.51 717.46 459.49 716.6" class="cls-11"></polygon></g><g class="cls-10"><rect height="14.62" width="14.62" y="817.37" x="415.31" class="cls-11"></rect></g><g class="cls-3"><path d="M219.42,279.3H273a0,0,0,0,1,0,0v445a0,0,0,0,1,0,0H217.63a7.32,7.32,0,0,1-7.32-7.32V288.41a9.11,9.11,0,0,1,9.11-9.11Z" class="cls-11"></path></g><g class="cls-3"><polygon points="459.49 716.6 439.59 818.58 468.47 818.58 491.51 717.46 459.49 716.6" class="cls-11"></polygon></g><g class="cls-3"><rect height="14.62" width="14.62" y="817.37" x="415.31" class="cls-11"></rect></g><polygon points="640.83 832 455.36 832 481.71 677.46 605.14 677.46 640.83 832" class="cls-12"></polygon><polygon points="640.83 832 455.36 832 481.71 677.46 605.14 677.46 640.83 832" class="cls-11"></polygon><rect height="14.62" width="240.41" y="817.37" x="425.84" class="cls-11"></rect><g class="cls-13"><rect height="14.62" width="240.41" y="817.37" x="425.84" class="cls-11"></rect></g><path d="M240.59,279.3H841.94a15.51,15.51,0,0,1,15.39,15.64V708.65a15.51,15.51,0,0,1-15.39,15.63H240.59a15.51,15.51,0,0,1-15.38-15.63V294.94A15.51,15.51,0,0,1,240.59,279.3Z" class="cls-12"></path><path d="M240.59,279.3H841.94a15.51,15.51,0,0,1,15.39,15.64V708.65a15.51,15.51,0,0,1-15.39,15.63H240.59a15.51,15.51,0,0,1-15.38-15.63V294.94A15.51,15.51,0,0,1,240.59,279.3Z" class="cls-14"></path><rect height="398.93" width="601.23" y="294.62" x="239.29" class="cls-15"></rect><g class="cls-16"><rect height="398.93" width="601.23" y="294.62" x="239.29" class="cls-6"></rect></g><rect height="32.02" width="601.24" y="294.62" x="239.29" class="cls-11"></rect><g class="cls-3"><path d="M832.52,310.63a6.8,6.8,0,1,1-6.8-6.81A6.8,6.8,0,0,1,832.52,310.63Z" class="cls-6"></path></g><g class="cls-3"><path d="M813.19,310.63a6.81,6.81,0,1,1-6.81-6.81A6.81,6.81,0,0,1,813.19,310.63Z" class="cls-6"></path></g><g class="cls-3"><path d="M793.85,310.63a6.81,6.81,0,1,1-6.8-6.81A6.81,6.81,0,0,1,793.85,310.63Z" class="cls-6"></path></g><path d="M350.77,560.24a28.16,28.16,0,0,0-4,9.66l-5.39.51v10.44l5.39.51a28.08,28.08,0,0,0,4,9.66l-3.45,4.16,7.39,7.39,4.16-3.45a28.08,28.08,0,0,0,9.66,4l.51,5.39h10.44l.51-5.39a28.16,28.16,0,0,0,9.66-4l4.16,3.45,7.38-7.39L397.75,591a27.86,27.86,0,0,0,4-9.66l5.4-.51V570.41l-5.4-.51a27.94,27.94,0,0,0-4-9.66l3.44-4.16-7.38-7.38-4.16,3.44a27.94,27.94,0,0,0-9.66-4l-.51-5.4H369l-.51,5.4a27.86,27.86,0,0,0-9.66,4l-4.16-3.44-7.39,7.38Zm33.1,5.78a13.59,13.59,0,1,1-19.22,0A13.59,13.59,0,0,1,383.87,566Z" class="cls-15"></path><g class="cls-17"><path d="M350.77,560.24a28.16,28.16,0,0,0-4,9.66l-5.39.51v10.44l5.39.51a28.08,28.08,0,0,0,4,9.66l-3.45,4.16,7.39,7.39,4.16-3.45a28.08,28.08,0,0,0,9.66,4l.51,5.39h10.44l.51-5.39a28.16,28.16,0,0,0,9.66-4l4.16,3.45,7.38-7.39L397.75,591a27.86,27.86,0,0,0,4-9.66l5.4-.51V570.41l-5.4-.51a27.94,27.94,0,0,0-4-9.66l3.44-4.16-7.38-7.38-4.16,3.44a27.94,27.94,0,0,0-9.66-4l-.51-5.4H369l-.51,5.4a27.86,27.86,0,0,0-9.66,4l-4.16-3.44-7.39,7.38Zm33.1,5.78a13.59,13.59,0,1,1-19.22,0A13.59,13.59,0,0,1,383.87,566Z" class="cls-6"></path></g><path d="M659.09,432.43a25.78,25.78,0,0,0-3.69,8.95l-5,.47v9.67l5,.47a25.78,25.78,0,0,0,3.69,8.95l-3.19,3.85,6.84,6.84,3.86-3.19a25.81,25.81,0,0,0,8.94,3.69l.47,5h9.68l.47-5a25.81,25.81,0,0,0,8.94-3.69l3.86,3.19,6.84-6.84-3.19-3.85A26,26,0,0,0,706.3,452l5-.47v-9.67l-5-.47a26,26,0,0,0-3.69-8.95l3.19-3.85L699,421.74l-3.86,3.19a25.81,25.81,0,0,0-8.94-3.69l-.47-5H676l-.47,5a25.81,25.81,0,0,0-8.94,3.69l-3.86-3.19-6.84,6.84Zm30.66,5.35a12.59,12.59,0,1,1-17.8,0A12.59,12.59,0,0,1,689.75,437.78Z" class="cls-15"></path><g class="cls-17"><path d="M659.09,432.43a25.78,25.78,0,0,0-3.69,8.95l-5,.47v9.67l5,.47a25.78,25.78,0,0,0,3.69,8.95l-3.19,3.85,6.84,6.84,3.86-3.19a25.81,25.81,0,0,0,8.94,3.69l.47,5h9.68l.47-5a25.81,25.81,0,0,0,8.94-3.69l3.86,3.19,6.84-6.84-3.19-3.85A26,26,0,0,0,706.3,452l5-.47v-9.67l-5-.47a26,26,0,0,0-3.69-8.95l3.19-3.85L699,421.74l-3.86,3.19a25.81,25.81,0,0,0-8.94-3.69l-.47-5H676l-.47,5a25.81,25.81,0,0,0-8.94,3.69l-3.86-3.19-6.84,6.84Zm30.66,5.35a12.59,12.59,0,1,1-17.8,0A12.59,12.59,0,0,1,689.75,437.78Z" class="cls-6"></path></g><path d="M647.12,378.89a16.65,16.65,0,0,0-2.39,5.78l-3.23.31v6.25l3.23.3a16.49,16.49,0,0,0,2.39,5.78l-2.06,2.49,4.42,4.43,2.49-2.07a16.57,16.57,0,0,0,5.78,2.39l.3,3.23h6.25l.31-3.23a16.65,16.65,0,0,0,5.78-2.39l2.49,2.07,4.42-4.43-2.06-2.49a16.66,16.66,0,0,0,2.38-5.78l3.23-.3V385l-3.23-.31a16.82,16.82,0,0,0-2.38-5.78l2.06-2.49L672.88,372l-2.49,2.07a16.65,16.65,0,0,0-5.78-2.39l-.31-3.23h-6.25l-.3,3.23A16.74,16.74,0,0,0,652,374L649.48,372l-4.42,4.42Zm19.81,3.46a8.14,8.14,0,1,1-11.51,0A8.14,8.14,0,0,1,666.93,382.35Z" class="cls-15"></path><g class="cls-13"><path d="M647.12,378.89a16.65,16.65,0,0,0-2.39,5.78l-3.23.31v6.25l3.23.3a16.49,16.49,0,0,0,2.39,5.78l-2.06,2.49,4.42,4.43,2.49-2.07a16.57,16.57,0,0,0,5.78,2.39l.3,3.23h6.25l.31-3.23a16.65,16.65,0,0,0,5.78-2.39l2.49,2.07,4.42-4.43-2.06-2.49a16.66,16.66,0,0,0,2.38-5.78l3.23-.3V385l-3.23-.31a16.82,16.82,0,0,0-2.38-5.78l2.06-2.49L672.88,372l-2.49,2.07a16.65,16.65,0,0,0-5.78-2.39l-.31-3.23h-6.25l-.3,3.23A16.74,16.74,0,0,0,652,374L649.48,372l-4.42,4.42Zm19.81,3.46a8.14,8.14,0,1,1-11.51,0A8.14,8.14,0,0,1,666.93,382.35Z" class="cls-6"></path></g><path d="M385.6,622.92a16.82,16.82,0,0,0-2.38,5.78L380,629v6.25l3.23.3a16.74,16.74,0,0,0,2.38,5.78l-2.06,2.49,4.42,4.42,2.49-2.06a16.57,16.57,0,0,0,5.78,2.39l.3,3.23h6.26l.3-3.23a16.57,16.57,0,0,0,5.78-2.39l2.49,2.06,4.42-4.42-2.06-2.49a17,17,0,0,0,2.39-5.78l3.22-.3V629l-3.22-.31a17,17,0,0,0-2.39-5.78l2.06-2.49L411.36,616l-2.49,2.06a16.74,16.74,0,0,0-5.78-2.38l-.3-3.23h-6.26l-.3,3.23a16.74,16.74,0,0,0-5.78,2.38L388,616l-4.42,4.42Zm19.81,3.46a8.14,8.14,0,1,1-11.5,0A8.14,8.14,0,0,1,405.41,626.38Z" class="cls-15"></path><g class="cls-13"><path d="M385.6,622.92a16.82,16.82,0,0,0-2.38,5.78L380,629v6.25l3.23.3a16.74,16.74,0,0,0,2.38,5.78l-2.06,2.49,4.42,4.42,2.49-2.06a16.57,16.57,0,0,0,5.78,2.39l.3,3.23h6.26l.3-3.23a16.57,16.57,0,0,0,5.78-2.39l2.49,2.06,4.42-4.42-2.06-2.49a17,17,0,0,0,2.39-5.78l3.22-.3V629l-3.22-.31a17,17,0,0,0-2.39-5.78l2.06-2.49L411.36,616l-2.49,2.06a16.74,16.74,0,0,0-5.78-2.38l-.3-3.23h-6.26l-.3,3.23a16.74,16.74,0,0,0-5.78,2.38L388,616l-4.42,4.42Zm19.81,3.46a8.14,8.14,0,1,1-11.5,0A8.14,8.14,0,0,1,405.41,626.38Z" class="cls-6"></path></g><path d="M428.65,442.49a120.55,120.55,0,0,0-17.22,41.73l-23.31,2.19v45.13l23.31,2.2a120.44,120.44,0,0,0,17.22,41.73l-14.88,18,31.91,31.91,18-14.88a120.55,120.55,0,0,0,41.73,17.22l2.19,23.3h45.13l2.2-23.3a120.63,120.63,0,0,0,41.73-17.22l18,14.88,31.91-31.91-14.88-18a120.63,120.63,0,0,0,17.22-41.73l23.3-2.2V486.41l-23.3-2.19a120.55,120.55,0,0,0-17.22-41.73l14.88-18L614.62,392.6l-18,14.88a120.44,120.44,0,0,0-41.73-17.22L552.71,367H507.58l-2.19,23.3a120.55,120.55,0,0,0-41.73,17.22l-18-14.88-31.91,31.91ZM582,457.16a73.28,73.28,0,1,1-103.64,0A73.3,73.3,0,0,1,582,457.16Z" class="cls-18"></path><path d="M508.57,515.43H492.29l-3.1,7.51h-8.32l15.63-35.06h8l15.68,35.06h-8.52ZM506,509.27l-5.56-13.42-5.55,13.42Z" class="cls-18"></path><path d="M547.1,489.44a12,12,0,0,1,5.29,4.4,13.24,13.24,0,0,1,0,13.5,11.84,11.84,0,0,1-5.29,4.41,19.85,19.85,0,0,1-8.08,1.52H532v9.67h-8.11V487.88H539A19.35,19.35,0,0,1,547.1,489.44Zm-3,15.65a6.28,6.28,0,0,0,0-9,8.52,8.52,0,0,0-5.55-1.58H532v12.17h6.62A8.52,8.52,0,0,0,544.12,505.09Z" class="cls-18"></path><path d="M560,487.88h8.11v35.06H560Z" class="cls-18"></path><path d="M463.65,518.27a1,1,0,0,1-1-.86c-2-20,3.79-39.16,16.41-53.92a1,1,0,1,1,1.46,1.24c-12.28,14.37-17.95,33-16,52.48a1,1,0,0,1-.86,1Z" class="cls-18"></path><path d="M466.88,533.38a1,1,0,0,1-.92-.69,75.91,75.91,0,0,1-1.91-8.12,1,1,0,1,1,1.88-.33,75.75,75.75,0,0,0,1.86,7.92,1,1,0,0,1-.64,1.18A.88.88,0,0,1,466.88,533.38Z" class="cls-18"></path><path d="M374.26,505.32H292.45a.5.5,0,0,1-.5-.5V409a.5.5,0,0,1,1,0v95.3h81.31a.5.5,0,0,1,0,1Z" class="cls-15"></path><circle r="4.9" cy="409.02" cx="292.45" class="cls-15"></circle><circle r="4.9" cy="580.54" cx="791.67" class="cls-15"></circle><polygon points="792.17 618.3 671.35 618.3 671.35 565.86 653.88 565.86 653.88 564.86 672.35 564.86 672.35 617.3 791.17 617.3 791.17 579.81 792.17 579.81 792.17 618.3" class="cls-15"></polygon><rect height="199.86" width="208.38" y="632.13" x="735.78" class="cls-15"></rect><rect height="199.86" width="208.38" y="632.13" x="735.78" class="cls-19"></rect><rect height="199.86" width="142.03" y="632.13" x="802.11" class="cls-20"></rect><rect height="24.74" width="127.83" y="642.35" x="809.21" class="cls-21"></rect><rect height="24.74" width="127.83" y="673.3" x="809.21" class="cls-21"></rect><rect height="24.74" width="127.83" y="704.22" x="809.21" class="cls-21"></rect><rect height="24.74" width="127.83" y="735.17" x="809.21" class="cls-21"></rect><rect height="24.74" width="127.83" y="766.11" x="809.21" class="cls-21"></rect><rect height="24.74" width="127.83" y="797.05" x="809.21" class="cls-21"></rect><rect height="24.74" width="51.46" y="642.35" x="743.22" class="cls-21"></rect><rect height="24.74" width="51.46" y="673.3" x="743.22" class="cls-21"></rect><rect height="24.74" width="51.46" y="704.22" x="743.22" class="cls-21"></rect><rect height="24.74" width="51.46" y="735.17" x="743.22" class="cls-21"></rect><rect height="24.74" width="51.46" y="766.11" x="743.22" class="cls-21"></rect><rect height="24.74" width="51.46" y="797.05" x="743.22" class="cls-21"></rect><g class="cls-22"><rect height="18.31" width="2.99" y="645.57" x="927.8" class="cls-6"></rect></g><g class="cls-22"><rect height="18.31" width="2.99" y="645.57" x="922.05" class="cls-6"></rect></g><g class="cls-22"><rect height="18.31" width="2.99" y="645.57" x="916.31" class="cls-6"></rect></g><g class="cls-22"><rect height="18.31" width="2.99" y="645.57" x="910.57" class="cls-6"></rect></g><g class="cls-22"><rect height="18.31" width="2.99" y="645.57" x="904.83" class="cls-6"></rect></g><g class="cls-22"><rect height="18.29" width="2.99" y="676.51" x="927.8" class="cls-6"></rect></g><g class="cls-22"><rect height="18.29" width="2.99" y="676.51" x="922.05" class="cls-6"></rect></g><g class="cls-22"><rect height="18.29" width="2.99" y="676.51" x="916.31" class="cls-6"></rect></g><g class="cls-22"><rect height="18.29" width="2.99" y="676.51" x="910.57" class="cls-6"></rect></g><g class="cls-22"><rect height="18.29" width="2.99" y="676.51" x="904.83" class="cls-6"></rect></g><g class="cls-22"><rect height="18.29" width="2.99" y="707.46" x="927.8" class="cls-6"></rect></g><g class="cls-22"><rect height="18.29" width="2.99" y="707.46" x="922.05" class="cls-6"></rect></g><g class="cls-22"><rect height="18.29" width="2.99" y="707.46" x="916.31" class="cls-6"></rect></g><g class="cls-22"><rect height="18.29" width="2.99" y="707.46" x="910.57" class="cls-6"></rect></g><g class="cls-22"><rect height="18.29" width="2.99" y="707.46" x="904.83" class="cls-6"></rect></g><g class="cls-22"><rect height="18.31" width="2.99" y="738.4" x="927.8" class="cls-6"></rect></g><g class="cls-22"><rect height="18.31" width="2.99" y="738.4" x="922.05" class="cls-6"></rect></g><g class="cls-22"><rect height="18.31" width="2.99" y="738.4" x="916.31" class="cls-6"></rect></g><g class="cls-22"><rect height="18.31" width="2.99" y="738.4" x="910.57" class="cls-6"></rect></g><g class="cls-22"><rect height="18.31" width="2.99" y="738.4" x="904.83" class="cls-6"></rect></g><g class="cls-22"><rect height="18.29" width="2.99" y="769.34" x="927.8" class="cls-6"></rect></g><g class="cls-22"><rect height="18.29" width="2.99" y="769.34" x="922.05" class="cls-6"></rect></g><g class="cls-22"><rect height="18.29" width="2.99" y="769.34" x="916.31" class="cls-6"></rect></g><g class="cls-22"><rect height="18.29" width="2.99" y="769.34" x="910.57" class="cls-6"></rect></g><g class="cls-22"><rect height="18.29" width="2.99" y="769.34" x="904.83" class="cls-6"></rect></g><g class="cls-22"><rect height="18.31" width="2.99" y="800.27" x="927.8" class="cls-6"></rect></g><g class="cls-22"><rect height="18.31" width="2.99" y="800.27" x="922.05" class="cls-6"></rect></g><g class="cls-22"><rect height="18.31" width="2.99" y="800.27" x="916.31" class="cls-6"></rect></g><g class="cls-22"><rect height="18.31" width="2.99" y="800.27" x="910.57" class="cls-6"></rect></g><g class="cls-22"><rect height="18.31" width="2.99" y="800.27" x="904.83" class="cls-6"></rect></g><g class="cls-23"><path d="M824.07,654.71a3,3,0,1,1-3-3h0A3,3,0,0,1,824.07,654.71Z" class="cls-6"></path></g><g class="cls-23"><path d="M843.21,654.71a3,3,0,1,1-3-3h0A3,3,0,0,1,843.21,654.71Z" class="cls-6"></path></g><g class="cls-24"><path d="M862.35,654.71a3,3,0,1,1-3-3h0A3,3,0,0,1,862.35,654.71Z" class="cls-6"></path></g><g class="cls-24"><path d="M824.07,685.66a3,3,0,1,1-3-3h0A3,3,0,0,1,824.07,685.66Z" class="cls-6"></path></g><g class="cls-23"><path d="M843.21,685.66a3,3,0,1,1-3-3h0A3,3,0,0,1,843.21,685.66Z" class="cls-6"></path></g><g class="cls-24"><path d="M862.35,685.66a3,3,0,1,1-3-3h0A3,3,0,0,1,862.35,685.66Z" class="cls-6"></path></g><g class="cls-23"><path d="M824.07,716.6a3,3,0,1,1-3-3h0A3,3,0,0,1,824.07,716.6Z" class="cls-6"></path></g><g class="cls-24"><path d="M843.21,716.6a3,3,0,1,1-3-3h0A3,3,0,0,1,843.21,716.6Z" class="cls-6"></path></g><g class="cls-23"><path d="M862.35,716.6a3,3,0,1,1-3-3h0A3,3,0,0,1,862.35,716.6Z" class="cls-6"></path></g><g class="cls-24"><path d="M824.07,747.55a3,3,0,1,1-3-3h0A3,3,0,0,1,824.07,747.55Z" class="cls-6"></path></g><g class="cls-23"><path d="M843.21,747.55a3,3,0,1,1-3-3h0A3,3,0,0,1,843.21,747.55Z" class="cls-6"></path></g><g class="cls-23"><path d="M862.35,747.55a3,3,0,1,1-3-3h0A3,3,0,0,1,862.35,747.55Z" class="cls-6"></path></g><g class="cls-23"><path d="M824.07,778.49a3,3,0,1,1-3-3h0A3,3,0,0,1,824.07,778.49Z" class="cls-6"></path></g><g class="cls-24"><path d="M843.21,778.49a3,3,0,1,1-3-3h0A3,3,0,0,1,843.21,778.49Z" class="cls-6"></path></g><g class="cls-24"><path d="M862.35,778.49a3,3,0,1,1-3-3h0A3,3,0,0,1,862.35,778.49Z" class="cls-6"></path></g><g class="cls-24"><path d="M824.07,809.43a3,3,0,1,1-3-3h0A3,3,0,0,1,824.07,809.43Z" class="cls-6"></path></g><g class="cls-23"><path d="M843.21,809.43a3,3,0,1,1-3-3h0A3,3,0,0,1,843.21,809.43Z" class="cls-6"></path></g><g class="cls-24"><path d="M862.35,809.43a3,3,0,1,1-3-3h0A3,3,0,0,1,862.35,809.43Z" class="cls-6"></path></g><g class="cls-3"><rect height="199.86" width="66.33" y="632.13" x="735.78" class="cls-25"></rect></g><rect rx="4.94" height="178.75" width="212.57" y="383.12" x="724.33" class="cls-15"></rect><g class="cls-3"><rect rx="4.94" height="178.75" width="212.57" y="383.12" x="724.33" class="cls-6"></rect></g><path d="M729,383.12H932.35a4.55,4.55,0,0,1,4.55,4.55v26.62a0,0,0,0,1,0,0H724.33a0,0,0,0,1,0,0V387.74A4.63,4.63,0,0,1,729,383.12Z" class="cls-15"></path><g class="cls-3"><path d="M924.89,401a6.81,6.81,0,1,1-6.8-6.8A6.81,6.81,0,0,1,924.89,401Z" class="cls-6"></path></g><g class="cls-3"><path d="M905.55,401a6.81,6.81,0,1,1-6.8-6.8A6.8,6.8,0,0,1,905.55,401Z" class="cls-6"></path></g><g class="cls-3"><path d="M886.21,401a6.8,6.8,0,1,1-6.8-6.8A6.8,6.8,0,0,1,886.21,401Z" class="cls-6"></path></g><g class="cls-5"><rect height="6.34" width="109.03" y="440.34" x="772.16" class="cls-6"></rect></g><g class="cls-5"><rect height="6.34" width="78.01" y="454.07" x="773.86" class="cls-12"></rect></g><rect height="6.34" width="21.45" y="440.34" x="889.21" class="cls-15"></rect><rect height="6.34" width="21.45" y="440.34" x="743.14" class="cls-15"></rect><rect height="6.34" width="109.03" y="469.32" x="772.16" class="cls-15"></rect><g class="cls-5"><rect height="6.34" width="21.45" y="469.32" x="889.21" class="cls-6"></rect></g><rect height="6.34" width="21.45" y="469.32" x="743.14" class="cls-15"></rect><rect height="6.34" width="109.03" y="529.72" x="772.16" class="cls-15"></rect><g class="cls-5"><rect height="6.34" width="21.45" y="529.72" x="889.21" class="cls-6"></rect></g><rect height="6.34" width="109.03" y="484.59" x="772.16" class="cls-15"></rect><g class="cls-5"><rect height="6.34" width="21.45" y="484.59" x="889.21" class="cls-12"></rect></g><g class="cls-5"><rect height="6.34" width="21.45" y="484.59" x="743.14" class="cls-12"></rect></g><rect height="6.34" width="51.82" y="454.32" x="860.42" class="cls-15"></rect><g class="cls-5"><rect height="6.34" width="78.01" y="497.91" x="772.16" class="cls-6"></rect></g><rect height="6.34" width="51.82" y="498.16" x="858.72" class="cls-15"></rect><g class="cls-5"><rect height="6.34" width="39.01" y="511.71" x="772.16" class="cls-12"></rect></g><rect rx="4.94" height="178.75" width="212.57" y="200.16" x="147.72" class="cls-26"></rect><path d="M360.28,231.33H147.72V204.79a4.62,4.62,0,0,1,4.62-4.63h203.4a4.54,4.54,0,0,1,4.54,4.54Z" class="cls-27"></path><g class="cls-3"><path d="M348.28,218a6.81,6.81,0,1,1-6.8-6.81A6.81,6.81,0,0,1,348.28,218Z" class="cls-6"></path></g><g class="cls-3"><path d="M328.94,218a6.81,6.81,0,1,1-6.8-6.81A6.8,6.8,0,0,1,328.94,218Z" class="cls-6"></path></g><g class="cls-3"><path d="M309.6,218a6.8,6.8,0,1,1-6.8-6.81A6.8,6.8,0,0,1,309.6,218Z" class="cls-6"></path></g><path d="M321,299.8c-7.06-9.45-21.5-14.07-31.13-7.25a40.27,40.27,0,0,0-79.71,11.12c-9.29-2.11-19.51.12-25.55,9.73-7.83,12.45,2.32,24.79,2.32,24.79l54.54.31v-20h-7a1.41,1.41,0,0,1-1-2.38l8-8.38,9.29-9.69a1.4,1.4,0,0,1,2,0l9.29,9.69,8,8.38a1.4,1.4,0,0,1-1,2.38h-7v20.11l58.05.33C328.49,329.44,328.05,309.25,321,299.8Z" class="cls-28"></path><path d="M57.85,694h70a11.46,11.46,0,0,1,11.46,11.46V743.3a11.46,11.46,0,0,1-11.46,11.46H111.13L111,766.2,98.39,754.76H57.85A11.46,11.46,0,0,1,46.39,743.3V705.49A11.46,11.46,0,0,1,57.85,694Z" class="cls-29"></path><path d="M84.25,718.42l-11,5.16,11,5.16v4.15l-14.76-7.15v-4.32l14.76-7.16Z" class="cls-6"></path><path d="M117.85,721.42v4.32l-14.75,7.15v-4.15l11-5.16-11-5.16v-4.16Z" class="cls-6"></path><polygon points="96.25 711.37 89.06 736.24 92.66 736.24 99.85 711.37 96.25 711.37" class="cls-6"></polygon><path d="M337.59,652.24a2,2,0,0,1,2.6,1.18,2.08,2.08,0,0,1-1.25,2.51l-2.47,1,8.13.34c1,0,2.27.71,2.15,1.86,0,.94.87,2.23.13,3.23,0,0-8.28,7.41-9.23,7.38h0c-4-.11-8.94-4.73-10.33-8.51l-2.19-6,12.46-3Z" class="cls-30"></path><g class="cls-31"><path d="M337.59,652.24a2,2,0,0,1,2.6,1.18,2.08,2.08,0,0,1-1.25,2.51l-2.47,1,8.13.34c1,0,2.27.71,2.15,1.86,0,.94.87,2.23.13,3.23,0,0-8.28,7.41-9.23,7.38h0c-4-.11-8.94-4.73-10.33-8.51l-2.19-6,12.46-3Z" class="cls-32"></path></g><path d="M188.34,864.76s-7,10.44.64,19.13-.6,13.43-.6,13.43L157.28,866l15.54-15.65,15.52,14.41Z" class="cls-33"></path><path d="M189.55,648.6s.14-3.72.11,4.72c0,14,1.27,51.07.34,98.82-.74,38.17-26.68,105-26.68,105l23.8,17.2s35.35-59.81,41-117.69C231.06,727,237,647.32,237,647.32l-47.46,1.28Z" class="cls-34"></path><path d="M263,874.45s2.37,12.38,13.88,13.07,9,9.92,9,9.92h-44V875.31l21.1-.86Z" class="cls-33"></path><path d="M268.58,651.05s3.61,107.62,3.23,112.88l-3.39,117.6-28.43.53L235.4,759.68s-3-33.76-11.1-65.11a243.7,243.7,0,0,1-7.44-49.16h0L268.58,651Z" class="cls-34"></path><path d="M231.07,727.35l2.37-36.5a210.13,210.13,0,0,1,2.44,28.26c0,6.39-1.31,31.7-1.31,31.7l-3.5-23.46Z" class="cls-34"></path><path d="M189.23,648.6h-.09S189.21,646.77,189.23,648.6Z" class="cls-35"></path><path d="M189.35,648.6h-.09S189.33,646.77,189.35,648.6Z" class="cls-35"></path><path d="M249.82,515.7s5.05-5,5.11-15c0-7.73-6.28-1.86-6.28-1.86s0-5.56-3.93-4.48-5.35,7.14-5.35,7.14" class="cls-32"></path><path d="M224.23,497.82s-19.46,4.83-8.66,30.62l1.77-.13,3.58-.24" class="cls-32"></path><g id="sk"><path d="M249.21,555.24c-.08,0-1.06,16.13-19.81,14.72-13-1-17.61-14.74-17.91-14.74,1.4-.3,3.13-.75,3.82-.91a7.56,7.56,0,0,0,5.79-6.37c.38-2.28-.26-14-.06-16.3L241,536.08c-.28,4.89-2.23,16.23,4.6,18.23,1.14.34,2.36.64,3.64.93Z" class="cls-36"></path></g><g class="cls-37" id="sh"><path d="M241.24,549.68a14.54,14.54,0,0,1-.6-3.09,33.69,33.69,0,0,1,.13-7.19,21.86,21.86,0,0,1-11-4.83c-.37,1.37-2.4,7.34-1.84,8.64,1.06,2.45,6.07,6.47,13.32,6.47Z" class="cls-32"></path></g><path d="M238.26,545c-7.88.37-17.88-3.27-19.46-13.83l-1.43-9.52c-1.58-10.55,2.68-19.94,12.62-21.43h0c9.94-1.49,18.65,5.95,20.23,16.5l.63,4.22a33.07,33.07,0,0,1,.28,4.38c0,3.87,0,9.75-2,14-1.93,4-5.79,5.44-10.83,5.67Z" class="cls-36"></path><path d="M219.9,534.27c-3,.45-6-2.41-6.41-5.43s1.75-5.06,4.77-5.51l1.86,1.79,2.38,8.76-2.6.39Z" class="cls-36"></path><path d="M221.31,529a.94.94,0,0,0,.89-1c-.14-3.3-.32-14.41,3.43-15.72,2.93-1,10.85,2.25,17.46,0,2.89-1,5.81-.63,6.28.74.19.54.95-7.7-4.53-13.12-4.36-4.31-16.66-4-22-1.68-14.66,6.47-5.16,25.76-5.16,25.76l1.19,4.34a.92.92,0,0,0,.94.68l1.45-.06Z" class="cls-32"></path><ellipse transform="translate(-153.96 108.92) rotate(-19.6)" ry="6.15" rx="4.18" cy="500.11" cx="238.3" class="cls-32"></ellipse><path d="M246.61,576.79l26.71,61.68,0,.07a14.3,14.3,0,0,0,5,6.1L325,676.38l16.06-23.32-46.3-32.25,5.07,6.17-26.71-61.69-26.55,11.5Z" class="cls-38"></path><path d="M272.77,591.3c-.6,7.06-3.5,51.06-4.07,59.74h-79c-.45-7.83-2.45-42.09-4.14-57.41-1.62-14.62-4.79-21.94-2.46-26.26,3.79-7.07,14.17-11.15,21.24-12.12,4.32-.58,10.81-1,10.81-1s.55,11.21,13.67,11.83c17.85.85,16.66-11.84,16.75-11.83,10.56,1.16,17.78,2.84,21.82,5.26,11,6.56,6.64,16.86,5.37,31.8Z" class="cls-39"></path><path d="M273.4,625.93a1.89,1.89,0,0,0-1.36-1.69.16.16,0,0,0,0-.1.18.18,0,0,0-.12-.12l1.56-.34a2,2,0,0,0,1.55-2,1.87,1.87,0,0,0-1.84-1.7s0,0,0-.06l.64-.14a1.92,1.92,0,0,0,1.53-1.89,1.88,1.88,0,0,0-2.28-1.8l-1.47.33v0l0,0a1.89,1.89,0,0,0,1-2.11c-.17-1.09-1.47-1.44-2.42-1.23l-8.6,1.76,2-1.5a2,2,0,0,0,.55-2.61,1.86,1.86,0,0,0-2.67-.49l-11.13,8.19a6.29,6.29,0,0,0-1.45,8.6h0a9.39,9.39,0,0,0,9.8,3.88l13.08-2.92a2,2,0,0,0,1.54-2Z" class="cls-36"></path><g class="cls-40"><path d="M263.14,618.11a.18.18,0,0,0,.2.14l8.17-1.69a.17.17,0,1,0-.07-.34l-8.17,1.69a.17.17,0,0,0-.13.2Z" class="cls-36"></path></g><g class="cls-40"><path d="M263.78,621.76a.17.17,0,0,0,.2.13L273.1,620a.17.17,0,0,0,.13-.2.18.18,0,0,0-.2-.14l-9.12,1.88a.18.18,0,0,0-.13.21Z" class="cls-36"></path></g><g class="cls-40"><path d="M264.45,625.72a.17.17,0,0,0,.2.13l7.27-1.5a.17.17,0,1,0-.07-.34l-7.27,1.5a.17.17,0,0,0-.13.2Z" class="cls-36"></path></g><g id="b_4_b"><path d="M258,636,187,649a13.58,13.58,0,0,1-1.56.08,14.38,14.38,0,0,1-10.49-4.55,14.59,14.59,0,0,1-3.73-12.38l9.94-59.49a14.42,14.42,0,1,1,28.44,4.82l-6.77,40.95,52-6.58L258,636Z" class="cls-38"></path></g><path d="M338.56,662.25a1.59,1.59,0,0,0,1.49,1.24s0,.09,0,.1l-1.23.54a1.64,1.64,0,0,0-1,1.93,1.57,1.57,0,0,0,1.79,1.12v.05l-.5.22a1.64,1.64,0,0,0-1,1.81,1.59,1.59,0,0,0,2.17,1.13l1.17-.51v0l0,0a1.59,1.59,0,0,0-.52,1.91c.31.87,1.44,1,2.2.63l2.3-1.22a2.46,2.46,0,0,0,1.28-1.92c.36-3.48,1.07-12.58-1.34-11.53l-5.93,2.58a1.71,1.71,0,0,0-1,1.88Z" class="cls-30"></path><path d="M411.27,678.68H325.39l20.73-60.92H432Z" class="cls-41"></path></svg>