<?xml version="1.0" standalone="no"?><!DOCTYPE svg PUBLIC "-//W3C//DTD SVG 1.1//EN" "http://www.w3.org/Graphics/SVG/1.1/DTD/svg11.dtd"><svg t="1750415137861" class="icon" viewBox="0 0 1024 1024" version="1.1" xmlns="http://www.w3.org/2000/svg" p-id="1034" xmlns:xlink="http://www.w3.org/1999/xlink" width="200" height="200"><path d="M818.8928 198.656l-264.5504-99.9936a98.4064 98.4064 0 0 0-68.864 0l-268.8 100.096a91.4944 91.4944 0 0 0-60.5696 85.1968v343.3984c0 94.464 177.664 212.1728 281.6 272.8448a148.48 148.48 0 0 0 146.6368 1.4848c107.52-60.0576 294.912-178.432 294.912-274.3296V283.6992a91.4944 91.4944 0 0 0-60.3648-85.0432z m-119.3472 205.2608L501.76 605.9008a30.72 30.72 0 0 1-21.9648 9.216h-1.1264a30.72 30.72 0 0 1-22.3232-10.9568L349.952 478.7712a30.72 30.72 0 1 1 46.8992-39.7312L481.28 538.8288l174.08-177.8688a30.72 30.72 0 0 1 43.8784 42.9568z" fill="#42E59B" p-id="1035"></path></svg>